<?xml version="1.0" standalone="no"?><!-- Generator: Gravit.io --><svg xmlns="http://www.w3.org/2000/svg" xmlns:xlink="http://www.w3.org/1999/xlink" style="isolation:isolate" viewBox="0 0 1020 1020" width="1020" height="1020"><defs><clipPath id="_clipPath_qFANnddsLPNfdMXyYk95ElF83wwyrYZx"><rect width="1020" height="1020"/></clipPath></defs><g clip-path="url(#_clipPath_qFANnddsLPNfdMXyYk95ElF83wwyrYZx)"><path d=" M 459 413.5 C 459 355.825 550.679 309 663.601 309 C 776.524 309 868.203 355.825 868.203 413.5 C 868.203 471.175 776.524 518 663.601 518 C 550.679 518 459 471.175 459 413.5 Z " fill="rgb(255,153,0)"/><path d=" M 774.963 784.604 C 794.146 777.285 812.822 767.763 830.664 755.995 C 963.307 668.512 999.936 489.85 912.409 357.272 C 824.882 224.694 646.132 188.083 513.489 275.567 C 464.331 307.989 428.36 352.934 407.092 403.447 C 450.497 386.753 498.573 380.411 547.883 386.982 C 705.408 407.972 816.248 552.841 795.247 710.289 C 791.753 736.487 784.827 761.393 774.963 784.604 Z " fill-rule="evenodd" fill="rgb(195,207,217)"/><path d=" M 675.392 688.017 L 506.852 640.475 L 633.752 518 L 675.392 688.017 Z " fill-rule="evenodd" fill="rgb(116,116,116)"/><path d=" M 621.803 406.938 C 712.631 444.754 781.745 528.166 796.453 632.524 C 818.622 789.811 708.86 935.498 551.495 957.655 C 409.535 977.644 277.021 890.321 236.211 757.538 C 261.585 768.124 288.929 775.176 317.687 778.083 C 475.799 794.067 617.149 678.741 633.141 520.707 C 637.143 481.161 632.918 442.664 621.803 406.938 Z " fill-rule="evenodd" fill="rgb(255,153,0)"/><path d=" M 385 492 L 492 640.438 L 306.652 640.438 L 385 492 Z " fill-rule="evenodd" fill="rgb(74,134,232)"/><path d=" M 375.312 349.518 L 516 382.525 L 375.312 502 L 375.312 349.518 Z " fill-rule="evenodd" fill="rgb(195,207,217)" vector-effect="non-scaling-stroke" stroke-width="1.659" stroke="rgb(195,207,217)" stroke-linejoin="round" stroke-linecap="butt" stroke-miterlimit="1.414"/><path d=" M 399.15 604.763 C 299.243 554.882 233.356 448.916 240.267 330.501 C 249.522 171.931 385.838 50.7 544.487 59.949 C 667.504 67.12 768.058 150.65 802.664 261.754 C 768.82 244.777 731.04 234.29 690.864 231.948 C 532.215 222.699 395.898 343.93 386.644 502.501 C 384.565 538.115 389.072 572.604 399.15 604.763 Z " fill-rule="evenodd" fill="rgb(74,134,232)"/><path d=" M 603.567 624.269 C 550.399 726.488 438.318 790.942 316.902 777.775 C 158.911 760.641 44.559 618.525 61.701 460.611 C 74.875 339.255 161.897 243.659 273.19 213.678 C 257.173 244.471 246.503 278.691 242.535 315.249 C 225.393 473.162 339.745 615.279 497.736 632.412 C 534.312 636.378 570.04 633.301 603.567 624.269 Z " fill-rule="evenodd" fill="rgb(116,116,116)"/><path d=" M 386.054 508.674 C 386.054 440.354 441.549 384.886 509.903 384.886 C 578.257 384.886 633.752 440.354 633.752 508.674 C 633.752 576.995 578.257 632.462 509.903 632.462 C 441.549 632.462 386.054 576.995 386.054 508.674 Z " fill="rgb(255,255,255)"/></g></svg>